<?xml version="1.0" encoding="UTF-8"?>
<svg version="1.1" xmlns="http://www.w3.org/2000/svg" width="1920" height="1080">
<path d="M0 0 C22.11 0 44.22 0 67 0 C73.74198408 10.11297611 73.74198408 10.11297611 76.19140625 14.7578125 C76.73651855 15.78302002 77.28163086 16.80822754 77.84326172 17.86450195 C78.69428467 19.47844849 78.69428467 19.47844849 79.5625 21.125 C84.06701524 29.58005979 88.63357944 37.98786848 93.375 46.3125 C98.27482489 54.92231035 103.09813042 63.57159293 107.875 72.25 C109.23563287 74.72137851 110.59629734 77.19273962 111.95703125 79.6640625 C112.29398514 80.27609024 112.63093903 80.88811798 112.97810364 81.51869202 C118.95183349 92.36437567 124.98248324 103.17858331 131 114 C135.95 122.91 140.9 131.82 146 141 C146.495 71.205 146.495 71.205 147 0 C165.48 0 183.96 0 203 0 C203 76.23 203 152.46 203 231 C180.89 231 158.78 231 136 231 C130.37641723 222.00226757 130.37641723 222.00226757 127.94140625 217.62890625 C127.39806641 216.65566406 126.85472656 215.68242188 126.29492188 214.6796875 C125.72322266 213.65101563 125.15152344 212.62234375 124.5625 211.5625 C123.31385543 209.32418899 122.06515598 207.08590859 120.81640625 204.84765625 C120.18234863 203.7095752 119.54829102 202.57149414 118.89501953 201.39892578 C115.93783932 196.09489809 112.96863025 190.79762477 110 185.5 C108.83326882 183.4167028 107.66660232 181.33336937 106.5 179.25 C105.9225 178.21875 105.345 177.1875 104.75 176.125 C85.5 141.75 85.5 141.75 83.74755859 138.62060547 C82.58906965 136.55189834 81.43054146 134.48321319 80.27197266 132.41455078 C77.2298529 126.98262267 74.18855739 121.55023517 71.1484375 116.1171875 C70.51679688 114.98861328 69.88515625 113.86003906 69.234375 112.69726562 C68.02839285 110.54245928 66.82264916 108.38751944 65.6171875 106.23242188 C65.070625 105.25595703 64.5240625 104.27949219 63.9609375 103.2734375 C63.48446777 102.42185059 63.00799805 101.57026367 62.51708984 100.69287109 C60.69231073 97.45384413 58.8444838 94.22784665 57 91 C56.67 137.2 56.34 183.4 56 231 C37.52 231 19.04 231 0 231 C0 154.77 0 78.54 0 0 Z " fill="#FFFFFF" transform="translate(424,452)"/>
<path d="M0 0 C0.69327393 0.00304138 1.38654785 0.00608276 2.10083008 0.00921631 C21.37272242 0.1336046 39.00921395 3.78585698 56.3125 12.4375 C56.3125 25.3075 56.3125 38.1775 56.3125 51.4375 C48.6040102 50.0359564 40.96235398 48.54573904 33.3203125 46.84960938 C24.28728756 44.8979376 15.48436533 44.23827314 6.25 44.1875 C5.30833984 44.166875 4.36667969 44.14625 3.39648438 44.125 C-2.68416384 44.0911481 -7.12955747 44.9498461 -12.6875 47.4375 C-13.63021002 50.69389659 -13.63021002 50.69389659 -13.6875 54.4375 C-9.83007596 59.44898942 -5.06201565 61.33665197 0.625 63.625 C1.53564209 64.00446777 2.44628418 64.38393555 3.38452148 64.77490234 C7.39628856 66.44270416 11.42188221 68.07584259 15.44726562 69.71044922 C53.97686618 85.37574234 53.97686618 85.37574234 61.3125 100.4375 C66.99100383 114.40804498 67.24010082 131.19394441 62.3125 145.4375 C56.12599845 159.89194288 45.06139007 170.0330686 30.6484375 176.04296875 C23.99719443 178.51363747 17.33769535 180.42718762 10.3125 181.4375 C9.56226563 181.54835938 8.81203125 181.65921875 8.0390625 181.7734375 C-19.87752679 185.20504482 -46.76580452 179.89834774 -71.6875 167.4375 C-71.6875 154.5675 -71.6875 141.6975 -71.6875 128.4375 C-61.62870983 129.55514335 -61.62870983 129.55514335 -57.32421875 130.77734375 C-45.87261909 133.86689091 -34.72198988 136.0687895 -22.875 136.9375 C-21.73828857 137.02636475 -20.60157715 137.11522949 -19.43041992 137.20678711 C-6.7199398 138.15676459 -6.7199398 138.15676459 4.62036133 133.57617188 C6.61384387 131.42534777 6.61384387 131.42534777 6.8125 127.9375 C6.20545582 123.68819071 5.62171811 123.08083886 2.3125 120.4375 C-0.77492485 118.82507634 -3.96599968 117.50724208 -7.1875 116.1875 C-8.11369141 115.79836426 -9.03988281 115.40922852 -9.99414062 115.00830078 C-15.51780544 112.70053235 -21.07604262 110.48847311 -26.65087891 108.30786133 C-44.46809504 101.31644745 -60.41781223 93.883498 -68.6875 75.4375 C-70.46983974 70.07138427 -71.6875 65.10169163 -71.6875 59.4375 C-86.19148339 59.10635883 -100.19391806 59.1318738 -114.44775391 62.04858398 C-117.84147466 62.63787951 -121.2695946 63.01026183 -124.6875 63.4375 C-124.6875 100.7275 -124.6875 138.0175 -124.6875 176.4375 C-135.061875 176.458125 -145.43625 176.47875 -156.125 176.5 C-161.04490845 176.51365601 -161.04490845 176.51365601 -166.06420898 176.52758789 C-168.64567016 176.53050676 -171.22713178 176.53305538 -173.80859375 176.53515625 C-174.82107933 176.53907631 -174.82107933 176.53907631 -175.85401917 176.54307556 C-177.83292498 176.55035661 -179.81185228 176.5508384 -181.79077148 176.55102539 C-183.46622292 176.55435631 -183.46622292 176.55435631 -185.17552185 176.55775452 C-187.6875 176.4375 -187.6875 176.4375 -188.6875 175.4375 C-188.7866659 173.26287534 -188.81382391 171.08496549 -188.81448364 168.90808105 C-188.81604363 168.21781185 -188.81760362 167.52754264 -188.81921089 166.81635618 C-188.82322306 164.4862735 -188.82003042 162.15625513 -188.81689453 159.82617188 C-188.81824848 158.16264304 -188.82002837 156.49911451 -188.82220459 154.83558655 C-188.82677973 150.30472395 -188.82498903 145.77388402 -188.8218255 141.24302101 C-188.81930232 136.51223309 -188.82163932 131.78144717 -188.82321167 127.05065918 C-188.82503349 119.10457001 -188.82262674 111.15849011 -188.81787109 103.21240234 C-188.81242845 94.01189477 -188.8141911 84.81140935 -188.8196975 75.61090231 C-188.82422828 67.7264288 -188.82487935 59.84196198 -188.82225883 51.95748758 C-188.82069586 47.24191328 -188.82050282 42.5263494 -188.82379532 37.81077576 C-188.82667353 33.37855931 -188.82469926 28.94637157 -188.81890106 24.51415825 C-188.81757319 22.88266993 -188.81796803 21.25117923 -188.82016373 19.61969185 C-188.8228742 17.40206772 -188.8194954 15.18453704 -188.81448364 12.96691895 C-188.81410662 11.72287544 -188.81372959 10.47883194 -188.81334114 9.19709015 C-188.6875 6.4375 -188.6875 6.4375 -187.6875 5.4375 C-186.09139018 5.34416295 -184.49116572 5.32004628 -182.89233398 5.32397461 C-181.87135117 5.32405014 -180.85036835 5.32412567 -179.79844666 5.32420349 C-178.6880452 5.32936478 -177.57764374 5.33452606 -176.43359375 5.33984375 C-174.73771873 5.34196617 -174.73771873 5.34196617 -173.00758362 5.34413147 C-169.38002935 5.34974981 -165.75253576 5.36230542 -162.125 5.375 C-159.67252693 5.38001264 -157.2200529 5.38457595 -154.76757812 5.38867188 C-148.74086455 5.3997252 -142.71418661 5.41648116 -136.6875 5.4375 C-134.63132774 10.15280077 -132.90287229 14.7210096 -131.5 19.6875 C-131.15582031 20.88890625 -130.81164063 22.0903125 -130.45703125 23.328125 C-129.6875 26.4375 -129.6875 26.4375 -129.6875 29.4375 C-128.96691406 28.71304688 -128.24632812 27.98859375 -127.50390625 27.2421875 C-112.23130208 12.03313092 -98.25802665 3.10994559 -76.4375 3.125 C-65.93392955 3.19107045 -65.93392955 3.19107045 -64.6875 4.4375 C-64.53063751 5.99698542 -64.43673361 7.56292668 -64.37109375 9.12890625 C-64.32919922 10.07314453 -64.28730469 11.01738281 -64.24414062 11.99023438 C-64.20482422 12.98345703 -64.16550781 13.97667969 -64.125 15 C-64.08181641 15.99708984 -64.03863281 16.99417969 -63.99414062 18.02148438 C-63.88769702 20.4933415 -63.78568072 22.9653031 -63.6875 25.4375 C-63.26380127 24.90560059 -62.84010254 24.37370117 -62.40356445 23.82568359 C-46.99017018 4.78604275 -23.37749319 -0.21943741 0 0 Z " fill="#FFFFFF" transform="translate(1741.6875,506.5625)"/>
<path d="M0 0 C0.83917969 0.67804687 1.67835938 1.35609375 2.54296875 2.0546875 C19.04620415 16.08618265 27.51032047 35.76132587 30 57 C30.25603126 61.73143351 30.33035112 66.44291641 30.31567383 71.18041992 C30.31251884 73.29984327 30.33605512 75.41785761 30.36132812 77.53710938 C30.47077817 101.02069637 23.28593864 123.66011772 7 141 C-12.99543736 160.37146627 -38.31154864 164.70217903 -65.1328125 164.31640625 C-88.45804469 163.54321201 -109.43318067 155.73248753 -126 139 C-143.2152849 120.5996049 -148.73656174 94.71113794 -148.1875 70.140625 C-146.8611768 47.92471145 -142.4129154 25.96410817 -127 9 C-126.34644531 8.25492188 -125.69289063 7.50984375 -125.01953125 6.7421875 C-95.86162475 -24.59326757 -32.65309047 -26.95712823 0 0 Z M-75 35 C-86.0516992 51.90259878 -85.34521675 74.64949034 -82.3984375 93.9375 C-80.45727314 103.15269784 -77.56566869 111.03021455 -70 117 C-64.21314743 120.11599754 -58.14580383 120.56120672 -51.91015625 118.7109375 C-45.0123834 116.14366826 -41.12850051 111.45969259 -38 105 C-33.17967013 90.96748415 -32.459314 76.81726569 -33.75 62.125 C-33.86045654 60.841698 -33.86045654 60.841698 -33.97314453 59.5324707 C-35.14140965 48.24178886 -38.28638301 38.71361699 -46.4375 30.5625 C-56.0846134 24.68011378 -67.87284057 26.04014243 -75 35 Z " fill="#FFFFFF" transform="translate(795,524)"/>
<path d="M0 0 C14.31252801 12.93446366 20.21709593 31.06459924 21.203125 49.875 C21.45003806 63.17118783 21.22932506 78.31202483 17 91 C-31.51 91.495 -31.51 91.495 -81 92 C-79.3102843 99.64663665 -79.3102843 99.64663665 -77 107 C-76.34 107 -75.68 107 -75 107 C-74.29875 107.721875 -73.5975 108.44375 -72.875 109.1875 C-63.32990153 118.9257074 -51.23187611 120.28738832 -38.1875 120.4375 C-21.72247143 120.3737399 -5.49786739 117.36660511 10.26953125 112.734375 C13 112 13 112 16 112 C16 125.53 16 139.06 16 153 C-4.82587203 161.09895023 -4.82587203 161.09895023 -12 162.3125 C-12.82628906 162.46364258 -13.65257812 162.61478516 -14.50390625 162.77050781 C-46.48234311 168.42165906 -83.00304632 169.40200905 -110.6484375 150.15625 C-126.8815746 137.96891015 -136.41692754 119.51668499 -139.35058594 99.62255859 C-143.03481092 71.44425034 -142.60499554 39.70905319 -125 16 C-124.03900391 14.69095703 -124.03900391 14.69095703 -123.05859375 13.35546875 C-110.44035008 -3.11491975 -92.28862613 -12.40639628 -72.0625 -16.3125 C-46.30232923 -19.62406707 -20.68415588 -16.69585454 0 0 Z M-68 30 C-68.99966797 30.56847656 -68.99966797 30.56847656 -70.01953125 31.1484375 C-76.14240748 35.07889237 -78.76844215 40.18081893 -81 47 C-81.33 48.98 -81.66 50.96 -82 53 C-66.16 53 -50.32 53 -34 53 C-33.47383887 42.91883297 -33.47383887 42.91883297 -37 34 C-46.01237746 26.44016689 -57.28379443 23.69634966 -68 30 Z " fill="#FE9800" transform="translate(303,521)"/>
<path d="M0 0 C1.17438629 -0.01191879 1.17438629 -0.01191879 2.37249756 -0.02407837 C16.01113093 -0.13035947 30.05766194 0.65596455 42.625 6.5 C43.28290527 6.7993042 43.94081055 7.0986084 44.61865234 7.40698242 C56.6201952 13.17225632 63.62041636 22.47946701 68.5 34.625 C73.52473032 50.10865636 72.51051434 66.35671669 72.4453125 82.4296875 C72.44045481 85.14494722 72.4386339 87.86020678 72.43673706 90.57546997 C72.4305612 96.9569945 72.41420407 103.33844917 72.39403808 109.71994317 C72.37155663 116.99460562 72.3606551 124.2692717 72.35064721 131.54396033 C72.3298336 146.48768534 72.29320712 161.4313198 72.25 176.375 C55.75 176.375 39.25 176.375 22.25 176.375 C18.25 166.375 18.25 166.375 18.25 164.375 C17.7653125 164.75011719 17.280625 165.12523437 16.78125 165.51171875 C-1.70172997 179.62276307 -21.11168568 184.80767407 -44.21875 181.9453125 C-58.77850117 178.7750441 -70.70743438 171.16887496 -79.0625 158.8125 C-86.82545579 144.88675201 -87.387107 128.85996273 -83.70703125 113.65234375 C-79.83088256 100.37851212 -70.50221423 89.75093491 -58.6171875 82.83203125 C-36.86963272 71.78048093 -11.45697217 70.54739839 12.25 75.375 C13.10348089 62.32765198 13.10348089 62.32765198 7.92578125 50.7890625 C0.85817812 44.37071425 -8.98584081 44.14770584 -18.04589844 44.45214844 C-31.98518585 45.21449669 -45.2314208 48.04476521 -58.75 51.375 C-63.04 52.365 -67.33 53.355 -71.75 54.375 C-71.75 41.175 -71.75 27.975 -71.75 14.375 C-55.36622631 7.35338271 -55.36622631 7.35338271 -48.625 5.6875 C-47.82046387 5.48745361 -47.01592773 5.28740723 -46.18701172 5.08129883 C-43.71315255 4.48648722 -41.23428219 3.9245048 -38.75 3.375 C-38.02232422 3.20838867 -37.29464844 3.04177734 -36.54492188 2.87011719 C-24.46542053 0.22533063 -12.31029844 0.06564799 0 0 Z M-23.75 114.375 C-26.6269413 120.2504435 -27.05183556 127.35690215 -25.02734375 133.60546875 C-22.38417826 138.62427286 -18.95530386 140.63989871 -13.75 142.375 C-4.39845184 143.26562363 2.56954696 140.04641647 10.58984375 135.46875 C12.75083528 133.58802358 13.21291162 132.58317413 13.72241211 129.72338867 C13.84160807 126.48254015 13.77268048 123.3020039 13.625 120.0625 C13.59792969 118.94037109 13.57085938 117.81824219 13.54296875 116.66210938 C13.47239001 113.89777541 13.37384488 111.13737585 13.25 108.375 C8.2556675 107.3857073 3.44513945 107.15885736 -1.625 107.125 C-2.77162109 107.0940625 -2.77162109 107.0940625 -3.94140625 107.0625 C-11.52084578 107.01102673 -18.23067668 108.85567668 -23.75 114.375 Z " fill="#FFFFFF" transform="translate(1086.75,506.625)"/>
<path d="M0 0 C22.11 0 44.22 0 67 0 C71.59205798 17.22021743 71.59205798 17.22021743 73.45776367 25.04052734 C73.77809822 26.37276588 73.77809822 26.37276588 74.10490417 27.73191833 C74.55961739 29.6238267 75.01352586 31.51592864 75.46666527 33.40821457 C76.18355774 36.40101665 76.90311105 39.39316814 77.62336731 42.38516235 C79.6676379 50.87891772 81.70774197 59.3736702 83.74487305 67.86914062 C84.99786418 73.09369983 86.25428811 78.31742355 87.5128727 83.54063797 C87.99068473 85.52673794 88.46713762 87.51316538 88.94222069 89.49991989 C89.60173481 92.25773091 90.26556863 95.01446771 90.93041992 97.77099609 C91.12625671 98.59475235 91.32209351 99.41850861 91.52386475 100.26722717 C92.15503029 103.93358641 92.15503029 103.93358641 94 107 C94.13307525 106.46677722 94.26615049 105.93355444 94.40325832 105.38417339 C97.6401972 92.41434098 100.87845104 79.4448375 104.11812496 66.47568798 C105.68476117 60.20391823 107.25095821 53.93203948 108.81616211 47.65991211 C110.32587825 41.6102048 111.83673424 35.56078323 113.34839058 29.51156044 C113.92573456 27.20033277 114.50266346 24.88900137 115.07917595 22.57756615 C115.88494666 19.34725457 116.69217482 16.11731056 117.49975586 12.88745117 C117.73927979 11.92576019 117.97880371 10.96406921 118.22558594 9.97323608 C118.44572861 9.09404007 118.66587128 8.21484406 118.89268494 7.30900574 C119.08349608 6.54483935 119.27430723 5.78067297 119.47090054 4.99335003 C119.91748587 3.31086696 120.44952859 1.65141423 121 0 C142.78 0 164.56 0 187 0 C177.91365781 26.1232338 177.91365781 26.1232338 173.30230713 38.28158569 C171.70087673 42.50533153 170.11054968 46.73326095 168.51953125 50.9609375 C168.16953064 51.89054794 167.81953003 52.82015839 167.45892334 53.77793884 C164.45272861 61.77283531 161.47820893 69.77936975 158.51171875 77.7890625 C158.15400107 78.75491524 158.15400107 78.75491524 157.78905678 79.74028015 C156.81083135 82.38179079 155.83275595 85.02335693 154.85482883 87.66497803 C147.3597935 107.91079294 139.85370382 128.1523742 132.2399292 148.35391235 C131.50078831 150.31530426 130.76253744 152.27703181 130.02520752 154.23910522 C129.02227435 156.90658922 128.0157184 159.57267292 127.0078125 162.23828125 C126.71418823 163.02047028 126.42056396 163.8026593 126.11804199 164.60855103 C124.11496084 169.88503916 124.11496084 169.88503916 123 171 C121.15881971 171.09381302 119.31402359 171.11743954 117.47045898 171.11352539 C116.28931015 171.11344986 115.10816132 171.11337433 113.89122009 171.11329651 C112.6058284 171.10813522 111.32043671 171.10297394 109.99609375 171.09765625 C108.0338662 171.09553383 108.0338662 171.09553383 106.03199768 171.09336853 C102.54837141 171.0895441 99.06478661 171.07971446 95.58117676 171.06866455 C92.02873292 171.05844882 88.47628241 171.05387056 84.92382812 171.04882812 C77.94920168 171.03809212 70.97460283 171.0210166 64 171 C60.78018919 163.3911177 57.71150561 155.74765234 54.83203125 148.00390625 C54.44367096 146.9654808 54.05531067 145.92705536 53.65518188 144.85716248 C52.81367891 142.60654491 51.97315378 140.35556153 51.1335144 138.10424805 C49.06462586 132.55738804 46.98957087 127.01283553 44.91469765 121.46821213 C44.17173939 119.48266502 43.42903318 117.49702374 42.68632507 115.51138306 C36.09686149 97.89877141 29.45564822 80.30562774 22.81973267 62.71047974 C22.29168429 61.31032411 21.76363861 59.91016746 21.2355957 58.51000977 C20.97612058 57.82201011 20.71664545 57.13401045 20.44930744 56.42516232 C18.40892353 51.01456054 16.37084913 45.60309084 14.33343792 40.19136906 C12.70059497 35.85567905 11.06300213 31.52180746 9.42302227 27.18881226 C8.29223511 24.19940857 7.16412277 21.20899995 6.03654671 18.21838379 C5.49753361 16.79061228 4.95736111 15.36327788 4.4159832 13.93640137 C3.67022622 11.97044089 2.92851577 10.00299956 2.18774414 8.03515625 C1.7641713 6.9150415 1.34059845 5.79492676 0.90419006 4.64086914 C0 2 0 2 0 0 Z " fill="#FFFFFF" transform="translate(821,512)"/>
<path d="M0 0 C1.35568336 0.00333092 1.35568336 0.00333092 2.73875427 0.00672913 C3.75973709 0.00680466 4.78071991 0.00688019 5.8326416 0.00695801 C6.94304306 0.01211929 8.05344452 0.01728058 9.19749451 0.02259827 C10.89336952 0.02472069 10.89336952 0.02472069 12.62350464 0.02688599 C16.25105891 0.03250433 19.8785525 0.04505994 23.50608826 0.05775452 C25.95856133 0.06276715 28.41103536 0.06733047 30.86351013 0.07142639 C36.89024529 0.08163082 42.91684848 0.10120265 48.94358826 0.12025452 C48.94358826 14.97025452 48.94358826 29.82025452 48.94358826 45.12025452 C63.46358826 45.12025452 77.98358826 45.12025452 92.94358826 45.12025452 C92.94358826 59.31025452 92.94358826 73.50025452 92.94358826 88.12025452 C78.42358826 88.12025452 63.90358826 88.12025452 48.94358826 88.12025452 C49.06364461 100.01100132 49.06364461 100.01100132 49.20140076 111.90150452 C49.26156043 116.75563042 49.31970745 121.60971868 49.36546326 126.46400452 C49.40250972 130.38041997 49.44892042 134.29662555 49.50165176 138.21286011 C49.52009339 139.70223281 49.53523854 141.19165034 49.54693222 142.68109131 C49.21237573 155.54472941 49.21237573 155.54472941 54.13108826 166.99525452 C59.57406333 171.10772457 65.50680963 171.42396993 72.13108826 171.30775452 C72.80977966 171.30710999 73.48847107 171.30646545 74.18772888 171.30580139 C80.50454412 171.25320996 86.60348868 170.64859615 92.94358826 170.12025452 C92.94358826 183.98025452 92.94358826 197.84025452 92.94358826 212.12025452 C79.89791665 216.8641351 79.89791665 216.8641351 72.88108826 217.87025452 C72.04746765 217.99094299 71.21384705 218.11163147 70.35496521 218.23597717 C48.42369428 221.06414107 22.78443708 221.4592034 4.13108826 207.87025452 C-7.89261798 197.71641941 -12.31642878 184.38514534 -14.05641174 169.12025452 C-14.39611639 162.830682 -14.29051326 156.52565542 -14.25172424 150.22962952 C-14.24798609 148.43074197 -14.24514292 146.63185236 -14.2431488 144.83296204 C-14.23557548 140.13783475 -14.21598243 135.44283461 -14.19374084 130.74775696 C-14.17314534 125.94095071 -14.16411801 121.13412358 -14.15406799 116.32728577 C-14.13272951 106.92487766 -14.09760006 97.52259664 -14.05641174 88.12025452 C-21.97641174 88.12025452 -29.89641174 88.12025452 -38.05641174 88.12025452 C-38.05641174 76.24025452 -38.05641174 64.36025452 -38.05641174 52.12025452 C-29.20553271 49.59143193 -21.06687508 47.3744582 -12.05641174 46.12025452 C-11.92879456 44.98257629 -11.80117737 43.84489807 -11.66969299 42.67274475 C-11.10253676 38.1493386 -10.21410949 33.73237695 -9.24391174 29.28041077 C-8.98323914 28.06906715 -8.98323914 28.06906715 -8.71730042 26.83325195 C-8.35256528 25.14298427 -7.98608858 23.45309152 -7.61793518 21.76356506 C-7.05294144 19.16680472 -6.49576658 16.56844713 -5.93922424 13.96986389 C-5.5829183 12.32327885 -5.2261638 10.67679079 -4.86891174 9.03041077 C-4.70221985 8.25133865 -4.53552795 7.47226654 -4.36378479 6.66958618 C-2.93798895 0.17180725 -2.93798895 0.17180725 0 0 Z " fill="#FFFFFF" transform="translate(1201.056411743164,466.87974548339844)"/>
<path d="M0 0 C1.24097443 -0.00524185 2.48194885 -0.0104837 3.76052856 -0.0158844 C6.37078101 -0.02227308 8.98106236 -0.02100883 11.59130859 -0.01245117 C15.55228716 -0.00394496 19.51181977 -0.0327448 23.47265625 -0.06445312 C26.02343707 -0.06606568 28.57422042 -0.06548657 31.125 -0.0625 C32.87561234 -0.07935097 32.87561234 -0.07935097 34.66159058 -0.09654236 C49.37273861 0.02615921 60.33636415 4.62346524 71.015625 14.6015625 C77.49435254 21.3552176 80.22964326 28.3003828 81.6953125 37.43359375 C82.81165321 37.42027008 82.81165321 37.42027008 83.95054626 37.40667725 C90.99672089 37.32621363 98.04273383 37.26546914 105.08924007 37.22634506 C108.71114287 37.20555394 112.33266305 37.17739428 115.9543457 37.13183594 C119.4557065 37.08807156 122.95670148 37.06439306 126.4583149 37.05408478 C128.43074242 37.04320005 130.40302472 37.01202356 132.37522888 36.98040771 C140.75422822 36.97833371 147.75746962 37.69954575 154.03515625 43.65234375 C154.56238281 44.40515625 155.08960938 45.15796875 155.6328125 45.93359375 C156.45072266 47.0628125 156.45072266 47.0628125 157.28515625 48.21484375 C160.02445672 52.52487885 160.98354506 55.51982638 161.3203125 60.68359375 C161.43246094 62.30007813 161.43246094 62.30007813 161.546875 63.94921875 C161.59585937 64.7690625 161.64484375 65.58890625 161.6953125 66.43359375 C158.16583142 65.8620804 156.64594688 64.67285633 154.2578125 62.05859375 C147.34103899 54.5159405 138.24980515 52.65377378 128.30078125 52.140625 C116.14630934 51.7931321 104.24557018 52.19669281 94.6875 60.546875 C94.03007812 61.16949219 93.37265625 61.79210937 92.6953125 62.43359375 C92.05851563 63.00464844 91.42171875 63.57570313 90.765625 64.1640625 C84.58697456 69.95820465 80.78974962 76.6160684 77.6953125 84.43359375 C74.84415517 81.66629399 72.17906572 78.86021021 69.6328125 75.80859375 C67.50949991 73.27927307 65.36678854 71.38582624 62.6953125 69.43359375 C62.6953125 68.77359375 62.6953125 68.11359375 62.6953125 67.43359375 C62.17324219 67.18480469 61.65117187 66.93601562 61.11328125 66.6796875 C58.62623846 65.39799663 56.23014217 63.99200922 53.82421875 62.56518555 C47.96003076 59.11366953 42.34389134 56.04701109 35.6953125 54.43359375 C34.61507812 54.16933594 33.53484375 53.90507812 32.421875 53.6328125 C6.57310721 47.71731358 -25.99505956 48.11744431 -49.3046875 62.43359375 C-60.2200651 69.39465258 -68.19557302 76.64018067 -75.04296875 87.74609375 C-75.45933594 88.30296875 -75.87570313 88.85984375 -76.3046875 89.43359375 C-76.9646875 89.43359375 -77.6246875 89.43359375 -78.3046875 89.43359375 C-78.98164274 91.46445947 -79.65559777 93.49634501 -80.3203125 95.53125 C-80.99898986 97.53227094 -81.72058016 99.5190736 -82.4765625 101.4921875 C-86.88205747 113.47132661 -88.54133475 125.83287544 -90.3046875 138.43359375 C-93.97092562 138.58018915 -97.6363995 138.66809249 -101.3046875 138.74609375 C-102.84962891 138.80893555 -102.84962891 138.80893555 -104.42578125 138.87304688 C-112.85685399 139.00729963 -117.33969229 136.95649891 -123.546875 131.44140625 C-124.08570312 130.82007813 -124.62453125 130.19875 -125.1796875 129.55859375 C-125.73398438 128.94242188 -126.28828125 128.32625 -126.859375 127.69140625 C-131.31711956 120.72768637 -130.62665542 112.69359844 -130.640625 104.72265625 C-130.64706435 103.3865851 -130.65379353 102.05051533 -130.66079712 100.71444702 C-130.67272646 97.92222833 -130.6764824 95.13013297 -130.67529297 92.33789062 C-130.67508989 88.78170664 -130.7023986 85.22632278 -130.73683739 81.67032814 C-130.75920842 78.9128566 -130.76312744 76.15557465 -130.76207352 73.3980217 C-130.76554191 71.45666314 -130.78713566 69.51536376 -130.80917358 67.5741272 C-130.76294601 58.57397469 -129.06975097 52.66251435 -124.1796875 45.18359375 C-116.0886645 37.44435436 -107.80323285 36.72764762 -96.984375 36.9453125 C-95.63104573 36.95466073 -94.27769931 36.96176732 -92.92434692 36.9667511 C-89.39599265 36.98566384 -85.86869978 37.03462208 -82.34075928 37.090271 C-78.72731884 37.14180847 -75.11370358 37.16433796 -71.5 37.18945312 C-64.43446677 37.24276148 -57.36964714 37.32787682 -50.3046875 37.43359375 C-50.17843994 36.8295874 -50.05219238 36.22558105 -49.92211914 35.60327148 C-49.66483032 34.40359741 -49.66483032 34.40359741 -49.40234375 33.1796875 C-49.15109741 31.99524048 -49.15109741 31.99524048 -48.89477539 30.78686523 C-46.01642863 19.30801357 -37.09913056 11.12778157 -27.46875 4.90625 C-18.51969302 0.74107163 -9.76293934 -0.02447262 0 0 Z M-24.3046875 33.43359375 C-24.3046875 34.09359375 -24.3046875 34.75359375 -24.3046875 35.43359375 C-24.9646875 35.43359375 -25.6246875 35.43359375 -26.3046875 35.43359375 C-26.3046875 36.09359375 -26.3046875 36.75359375 -26.3046875 37.43359375 C1.4153125 37.43359375 29.1353125 37.43359375 57.6953125 37.43359375 C50.97971875 28.01028073 50.97971875 28.01028073 40.92358398 23.990448 C37.65811696 23.78976137 34.4354222 23.76653014 31.1640625 23.8046875 C29.973573 23.80227554 28.7830835 23.79986359 27.55651855 23.79737854 C25.04854998 23.79835465 22.54055922 23.81169139 20.03271484 23.83666992 C16.20725863 23.87098659 12.38411357 23.85731076 8.55859375 23.83789062 C6.11457356 23.84478949 3.6705593 23.85446223 1.2265625 23.8671875 C0.08989136 23.86222763 -1.04677979 23.85726776 -2.21789551 23.85215759 C-11.63746339 23.99095843 -18.08829734 26.05163043 -24.3046875 33.43359375 Z " fill="#FEFEFE" transform="translate(246.3046875,447.56640625)"/>
<path d="M0 0 C1.62228516 -0.01836914 1.62228516 -0.01836914 3.27734375 -0.03710938 C9.04516809 -0.04767316 13.87012022 0.29248684 19.375 2.1875 C20.67235405 2.52267202 21.97342476 2.84369658 23.27734375 3.15234375 C23.94056641 3.31283203 24.60378906 3.47332031 25.28710938 3.63867188 C26.63279259 3.96179157 27.97914809 4.28212462 29.32617188 4.59960938 C37.28009487 6.53601546 44.42525413 9.56822592 51.6875 13.3125 C56.91013056 16.02455662 56.91013056 16.02455662 62.375 18.1875 C62.375 18.8475 62.375 19.5075 62.375 20.1875 C63.09042969 20.435 63.80585937 20.6825 64.54296875 20.9375 C67.68909706 22.32613595 70.01310963 24.03213946 72.6875 26.1875 C73.57050781 26.88875 74.45351562 27.59 75.36328125 28.3125 C76.02714844 28.93125 76.69101563 29.55 77.375 30.1875 C77.375 30.8475 77.375 31.5075 77.375 32.1875 C78.035 32.1875 78.695 32.1875 79.375 32.1875 C79.375 32.8475 79.375 33.5075 79.375 34.1875 C80.365 34.5175 81.355 34.8475 82.375 35.1875 C82.375 35.8475 82.375 36.5075 82.375 37.1875 C82.95765625 37.4246875 83.5403125 37.661875 84.140625 37.90625 C86.85052837 39.4601806 88.24030802 41.20679431 90.125 43.6875 C91.04539062 44.87859375 91.04539062 44.87859375 91.984375 46.09375 C93.375 48.1875 93.375 48.1875 93.375 50.1875 C94.035 50.1875 94.695 50.1875 95.375 50.1875 C113.56219627 81.10122071 120.2394943 113.30208018 112.05322266 148.76196289 C110.7388934 153.46241689 108.8671266 157.93442996 107 162.4375 C106.61328125 163.40429688 106.2265625 164.37109375 105.828125 165.3671875 C103.81986438 170.25979559 101.86082189 174.16005639 98.375 178.1875 C97.41801826 179.87332226 96.46213148 181.55983873 95.52246094 183.25537109 C93.28589044 187.02137511 90.60260376 190.48216216 88 194 C83.45710227 200.22190433 79.05080364 206.40232803 75.375 213.1875 C74.73884766 214.32251953 74.73884766 214.32251953 74.08984375 215.48046875 C68.12152802 226.66877927 61.70172128 242.39520437 62.375 255.1875 C62.045 255.5175 61.715 255.8475 61.375 256.1875 C61.02879925 259.30706977 60.70294293 262.42213128 60.4765625 265.55273438 C60.12811225 268.85333254 59.66067105 270.85942622 57.46374512 273.38244629 C53.00647291 275.98726327 49.14202323 275.74725809 44.06445312 275.70507812 C42.50995705 275.71559204 42.50995705 275.71559204 40.92405701 275.72631836 C37.50118146 275.74391189 34.07913384 275.73227017 30.65625 275.71875 C28.27640626 275.72144451 25.8965636 275.72532658 23.51672363 275.73034668 C18.53008539 275.7362436 13.54373382 275.72767216 8.55712891 275.70898438 C2.16445344 275.68619518 -4.22755029 275.69931716 -10.62020111 275.72327423 C-15.53412947 275.7377267 -20.44789851 275.73312865 -25.36183167 275.72276306 C-27.71895934 275.72009427 -30.07610148 275.72337084 -32.43321228 275.73268127 C-35.72734912 275.74283731 -39.02039738 275.72735764 -42.31445312 275.70507812 C-43.28915054 275.71317505 -44.26384796 275.72127197 -45.26808167 275.72961426 C-49.57832357 275.67559365 -51.97726048 275.58561896 -55.71594238 273.28771973 C-57.81105882 270.98281031 -58.37541346 269.79932138 -58.8125 266.75 C-58.95042969 265.87601563 -59.08835937 265.00203125 -59.23046875 264.1015625 C-59.36066406 263.13992188 -59.49085937 262.17828125 -59.625 261.1875 C-59.9560897 258.99965929 -60.28949759 256.81216837 -60.625 254.625 C-60.87830078 252.96404297 -60.87830078 252.96404297 -61.13671875 251.26953125 C-63.60127184 235.71327214 -68.84978056 220.02172504 -77.83984375 206.97265625 C-79.625 204.1875 -79.625 204.1875 -79.625 201.1875 C-80.285 201.1875 -80.945 201.1875 -81.625 201.1875 C-84.625 196.80288462 -84.625 196.80288462 -84.625 194.1875 C-85.285 194.1875 -85.945 194.1875 -86.625 194.1875 C-90.625 188.77573529 -90.625 188.77573529 -90.625 186.1875 C-91.285 186.1875 -91.945 186.1875 -92.625 186.1875 C-93.9619503 183.85617397 -95.29517881 181.52289071 -96.625 179.1875 C-96.98577637 178.55602051 -97.34655273 177.92454102 -97.71826172 177.27392578 C-103.40649868 167.22462223 -107.86799538 157.43759082 -110.625 146.1875 C-110.88394043 145.16495117 -111.14288086 144.14240234 -111.40966797 143.08886719 C-113.4217563 134.57114571 -114.10238916 126.55009857 -114 117.8125 C-113.98912354 116.54100098 -113.97824707 115.26950195 -113.96704102 113.95947266 C-113.51544421 87.30333238 -103.59391885 59.38479723 -85.1875 39.5625 C-84.341875 38.77875 -83.49625 37.995 -82.625 37.1875 C-82.08746094 36.61902344 -81.54992188 36.05054688 -80.99609375 35.46484375 C-63.616867 17.21484154 -39.88244351 5.23125613 -14.99609375 1.6171875 C-9.93855038 0.70066399 -5.60457412 0.00326988 0 0 Z M-51.625 32.1875 C-53.16479308 33.10731039 -54.70637101 34.02414167 -56.25 34.9375 C-58.17640866 36.02563219 -58.17640866 36.02563219 -59.625 37.1875 C-59.625 37.8475 -59.625 38.5075 -59.625 39.1875 C-60.2128125 39.44789063 -60.800625 39.70828125 -61.40625 39.9765625 C-63.76186021 41.26219483 -65.27137745 42.63304744 -67.125 44.5625 C-67.73214844 45.19027344 -68.33929687 45.81804687 -68.96484375 46.46484375 C-69.51269531 47.03332031 -70.06054688 47.60179687 -70.625 48.1875 C-71.305625 48.826875 -71.98625 49.46625 -72.6875 50.125 C-78.12823911 55.48874701 -78.12823911 55.48874701 -80.625 62.1875 C-81.285 62.1875 -81.945 62.1875 -82.625 62.1875 C-84.24155827 65.47321704 -85.84085739 68.76706517 -87.4375 72.0625 C-87.88931641 72.9803125 -88.34113281 73.898125 -88.80664062 74.84375 C-91.6996266 80.8408888 -93.94240508 86.7454815 -95.625 93.1875 C-95.98658203 94.55261719 -95.98658203 94.55261719 -96.35546875 95.9453125 C-101.79624827 124.12576028 -95.56041306 151.17778219 -80.625 175.1875 C-80.03976562 176.13496094 -79.45453125 177.08242188 -78.8515625 178.05859375 C-76.86388122 181.21475544 -76.86388122 181.21475544 -74.625 184.1875 C-73.965 184.1875 -73.305 184.1875 -72.625 184.1875 C-72.3775 184.909375 -72.13 185.63125 -71.875 186.375 C-70.7558206 189.21359805 -70.7558206 189.21359805 -68.875 191.375 C-59.69455128 202.8505609 -53.63429225 217.02997713 -49.625 231.0625 C-49.3775 231.89007812 -49.13 232.71765625 -48.875 233.5703125 C-46.42292828 242.10147871 -45.19576889 250.28647631 -43.625 259.1875 C-14.585 259.1875 14.455 259.1875 44.375 259.1875 C45.63766754 254.7681636 46.62674601 251.11387527 47.25 246.6875 C48.76725262 237.25208527 50.69426649 227.48034734 55.3828125 219.06640625 C56.54106584 216.87302099 57.38121001 214.63525671 58.25 212.3125 C60.87829909 205.58653776 64.68418056 199.62763336 68.75 193.6875 C70.55666278 191.40497131 70.55666278 191.40497131 70.375 189.1875 C71.035 189.1875 71.695 189.1875 72.375 189.1875 C72.375 188.1975 72.375 187.2075 72.375 186.1875 C73.035 186.1875 73.695 186.1875 74.375 186.1875 C76.20621186 183.84913659 77.89937977 181.51729001 79.5625 179.0625 C80.05572754 178.33546875 80.54895508 177.6084375 81.05712891 176.859375 C88.72459475 165.34940339 93.68219196 153.46329749 97.375 140.1875 C97.58382813 139.47078125 97.79265625 138.7540625 98.0078125 138.015625 C98.44879156 135.82011225 98.43483975 133.79901069 98.375 131.5625 C98.26458991 127.40832019 98.26458991 127.40832019 99.375 125.1875 C99.4732189 122.77247061 99.50473926 120.35452119 99.5 117.9375 C99.50257813 116.63296875 99.50515625 115.3284375 99.5078125 113.984375 C99.38956278 110.60382428 98.99094027 107.50517829 98.375 104.1875 C98.23928657 102.79266755 98.11347454 101.39681753 98 100 C96.13292086 83.08313147 87.77412268 64.88800244 76.375 52.1875 C75.715 52.1875 75.055 52.1875 74.375 52.1875 C74.12621094 51.61515625 73.87742187 51.0428125 73.62109375 50.453125 C69.20073583 42.4161106 60.09491782 35.8321063 52.375 31.1875 C51.385 31.1875 50.395 31.1875 49.375 31.1875 C49.375 30.5275 49.375 29.8675 49.375 29.1875 C48.41078125 28.77757812 47.4465625 28.36765625 46.453125 27.9453125 C45.17705569 27.40110647 43.90101556 26.85683203 42.625 26.3125 C41.99078125 26.04308594 41.3565625 25.77367187 40.703125 25.49609375 C38.14342155 24.40288707 35.6099983 23.30992919 33.140625 22.0234375 C31.16473302 20.98139381 31.16473302 20.98139381 27.875 20.6875 C24.375 20.1875 24.375 20.1875 22.375 19.125 C19.41238324 17.73627339 16.60383233 18.12770681 13.375 18.1875 C12.385 17.6925 12.385 17.6925 11.375 17.1875 C-10.66101938 15.55794102 -33.16704152 19.48449436 -51.625 32.1875 Z " fill="#F3F7F9" transform="translate(1423.625,372.8125)"/>
<path d="M0 0 C0.79124268 0.00870117 1.58248535 0.01740234 2.39770508 0.02636719 C8.05204921 0.16861484 12.95498336 0.80476582 18.0625 3.375 C18.69285156 3.67664063 19.32320312 3.97828125 19.97265625 4.2890625 C24.5767563 6.6937517 28.16567358 9.86200703 31.2890625 14 C33.96897962 16.07782121 36.34358341 15.75057562 39.6875 15.8125 C47.54992897 16.22631205 53.02373792 17.66653815 58.9375 22.9375 C59.63875 23.741875 60.34 24.54625 61.0625 25.375 C61.80693359 26.01501953 61.80693359 26.01501953 62.56640625 26.66796875 C64.56546428 28.9488783 65.16736386 31.25573279 66.125 34.125 C68.49988598 40.11259131 71.24444673 42.42738236 76.625 45.7421875 C82.21955319 49.48982089 85.73422003 55.28005962 87.58984375 61.69140625 C89.48992356 72.47946271 88.69487928 81.40707573 82.66015625 90.484375 C77.41286742 97.30969935 69.45663266 101.6032438 61.0625 103.375 C59.72467651 103.46718304 58.38317531 103.51379156 57.04220581 103.52217102 C56.25181412 103.52932632 55.46142242 103.53648163 54.64707947 103.54385376 C53.78885086 103.54654266 52.93062225 103.54923157 52.04638672 103.55200195 C51.13527634 103.55857315 50.22416595 103.56514435 49.28544617 103.57191467 C46.27102572 103.59161915 43.2566551 103.60330537 40.2421875 103.61328125 C39.21024387 103.61735678 38.17830025 103.6214323 37.1150856 103.62563133 C31.65061901 103.64648221 26.18617744 103.66078691 20.72167969 103.67016602 C15.09292438 103.68121452 9.46456611 103.7155995 3.83595085 103.75533772 C-0.50510362 103.78155525 -4.84606434 103.78986254 -9.18719101 103.79344749 C-11.26110381 103.79830194 -13.33501275 103.80988314 -15.40884781 103.82848549 C-18.32121955 103.85298099 -21.23257511 103.85189263 -24.14501953 103.8449707 C-24.99110275 103.85778076 -25.83718597 103.87059082 -26.70890808 103.88378906 C-38.0920355 103.78588083 -46.51898604 98.4154781 -54.625 90.875 C-59.9742863 83.94276163 -62.90041243 73.85046161 -62.4140625 65.16015625 C-60.46376394 53.76209989 -55.04538907 44.56143545 -45.625 37.8125 C-42.9375 36.375 -42.9375 36.375 -39.9375 36.375 C-39.85113281 35.76914062 -39.76476563 35.16328125 -39.67578125 34.5390625 C-37.97835709 24.41680835 -33.93660565 14.75859846 -25.45703125 8.5625 C-17.08674203 3.02079128 -10.09847034 -0.18515477 0 0 Z M-19.5625 24.3125 C-22.23852368 28.52997592 -23.65825391 32.37285825 -24.3515625 37.34375 C-24.50367188 38.4265625 -24.65578125 39.509375 -24.8125 40.625 C-24.93367188 41.66140625 -25.05484375 42.6978125 -25.1796875 43.765625 C-25.9375 46.375 -25.9375 46.375 -27.74609375 47.64453125 C-28.46925781 47.88558594 -29.19242188 48.12664062 -29.9375 48.375 C-30.63230469 48.62121094 -31.32710937 48.86742187 -32.04296875 49.12109375 C-33.43725506 49.58411191 -34.83311779 50.04240837 -36.23046875 50.49609375 C-38.30489031 51.31268163 -38.30489031 51.31268163 -38.9375 54.375 C-39.9275 54.375 -40.9175 54.375 -41.9375 54.375 C-45.30706824 60.82113055 -47.56221578 67.05774837 -45.3359375 74.34375 C-44.12274096 77.23581447 -42.67747777 79.76503334 -40.9375 82.375 C-40.2775 82.375 -39.6175 82.375 -38.9375 82.375 C-38.9375 83.035 -38.9375 83.695 -38.9375 84.375 C-33.71735284 87.55294662 -29.64082733 87.80556619 -23.72265625 87.76318359 C-22.3605452 87.77106903 -22.3605452 87.77106903 -20.97091675 87.77911377 C-17.98043426 87.79227713 -14.99048756 87.78358858 -12 87.7734375 C-9.91544493 87.77545928 -7.83089055 87.7783716 -5.74633789 87.78213501 C-1.38193006 87.7865534 2.98229333 87.7801428 7.34667969 87.76611328 C12.93538598 87.74902181 18.52366002 87.75886557 24.11235046 87.77683067 C28.41551966 87.78768152 32.71858672 87.78421617 37.02175903 87.7764473 C39.08220471 87.77444889 41.14265971 87.7768919 43.20309448 87.78388596 C46.08486425 87.79152172 48.96593818 87.77986623 51.84765625 87.76318359 C52.69562775 87.76925629 53.54359924 87.77532898 54.41726685 87.78158569 C60.83909439 87.71286367 64.86185522 86.14508384 69.9375 82.0625 C73.2059963 77.88725956 72.57518722 72.77311565 72.53125 67.71484375 C72.03557594 64.18316608 71.23047107 62.18592328 69.0625 59.375 C68.4025 59.375 67.7425 59.375 67.0625 59.375 C67.0625 58.715 67.0625 58.055 67.0625 57.375 C66.30324219 57.11847656 65.54398438 56.86195313 64.76171875 56.59765625 C56.79597137 53.52913878 56.79597137 53.52913878 54.734375 50.28515625 C53.99589031 47.98721186 53.49121099 45.74908819 53.0625 43.375 C52.68016358 42.01696088 52.28567164 40.66224079 51.875 39.3125 C51.4728125 37.8584375 51.4728125 37.8584375 51.0625 36.375 C50.4025 36.375 49.7425 36.375 49.0625 36.375 C48.5675 34.89 48.5675 34.89 48.0625 33.375 C43.78895094 30.91447175 39.85192874 31.13945432 35.0625 31.375 C34.4025 31.705 33.7425 32.035 33.0625 32.375 C30.25 32.75 30.25 32.75 27.0625 32.375 C24.58607932 30.33195294 22.66348386 28.12706919 20.6640625 25.625 C15.84733932 19.71240858 10.84133092 16.19056082 3.125 15.1015625 C-5.37594621 14.6829553 -14.18942871 17.46807423 -19.5625 24.3125 Z " fill="#F3F7F9" transform="translate(1410.9375,427.625)"/>
<path d="M0 0 C8.51206042 5.84505462 13.09292417 13.66842154 15.45703125 23.5546875 C16.79380635 36.92243853 13.99213982 46.77116594 6.58203125 57.9921875 C-1.07195309 65.30599476 -11.07220266 68.07520871 -21.41796875 68.0546875 C-22.25932373 68.05307617 -23.10067871 68.05146484 -23.9675293 68.04980469 C-30.66664278 67.91825987 -36.23808988 66.80094473 -42.23046875 63.6796875 C-43.30296875 63.1228125 -44.37546875 62.5659375 -45.48046875 61.9921875 C-52.56415321 56.03545284 -58.4180246 48.04679594 -59.45361328 38.65625 C-60.19839147 28.00989089 -59.04565857 19.31006713 -54.23046875 9.6796875 C-53.57046875 9.6796875 -52.91046875 9.6796875 -52.23046875 9.6796875 C-51.97136719 9.091875 -51.71226562 8.5040625 -51.4453125 7.8984375 C-47.93517996 1.48764882 -41.34339898 -2.47478759 -34.55078125 -4.66015625 C-22.57922957 -7.04038241 -10.61960096 -6.28620862 0 0 Z " fill="#FE9800" transform="translate(392.23046875,510.3203125)"/>
<path d="M0 0 C7.78460358 7.42990941 12.65422404 15.95321813 13.35546875 26.86328125 C13.44753036 39.58619608 10.06338256 48.87104118 1.328125 58.26953125 C-6.87512297 65.85903257 -17.42093388 66.66329294 -28.12109375 66.50390625 C-36.18530317 65.94922518 -42.76770986 63.03331322 -49.8125 59.25 C-49.8125 58.59 -49.8125 57.93 -49.8125 57.25 C-50.8025 56.92 -51.7925 56.59 -52.8125 56.25 C-54.3125 54.46484375 -54.3125 54.46484375 -55.8125 52.1875 C-56.555 51.08728516 -56.555 51.08728516 -57.3125 49.96484375 C-60.88347499 43.501751 -62.3462037 37.81576691 -62.25 30.4375 C-62.24605225 29.65503906 -62.24210449 28.87257813 -62.23803711 28.06640625 C-62.05734128 20.73575014 -60.07437347 14.77374694 -56.8125 8.25 C-56.1525 8.25 -55.4925 8.25 -54.8125 8.25 C-54.585625 7.693125 -54.35875 7.13625 -54.125 6.5625 C-50.0443659 -0.62718864 -43.00036343 -4.04589599 -35.3984375 -6.54296875 C-23.65762244 -9.39212419 -9.60756373 -7.71548334 0 0 Z " fill="#FE9800" transform="translate(394.8125,619.75)"/>
<path d="M0 0 C3.46941546 0.45822468 6.67395049 0.89131683 10 2 C11.76019658 2.13689242 13.52446397 2.2244736 15.2890625 2.28125 C16.31257813 2.31863281 17.33609375 2.35601563 18.390625 2.39453125 C20.55467922 2.46509824 22.71874181 2.53540891 24.8828125 2.60546875 C25.90375 2.64285156 26.9246875 2.68023438 27.9765625 2.71875 C28.91580566 2.74904297 29.85504883 2.77933594 30.82275391 2.81054688 C33 3 33 3 34 4 C34.23925574 5.71158422 34.4207948 7.43129434 34.578125 9.15234375 C36.19346262 25.5445303 38.000088 42.26657133 46 57 C46.34417969 57.64582031 46.68835938 58.29164063 47.04296875 58.95703125 C50.0868757 64.22413304 54.03095852 68.49755172 58.20703125 72.8984375 C60 75 60 75 60 77 C60.804375 77.37125 60.804375 77.37125 61.625 77.75 C64 79 64 79 66.75 80.875 C70.37276634 83.24373184 74.0998434 85.13901157 78 87 C78 87.66 78 88.32 78 89 C70.34987676 89.11643903 62.69984672 89.20498914 55.04903603 89.25906086 C51.49542306 89.28502821 47.9424214 89.32018483 44.38916016 89.37719727 C40.29323852 89.44249683 36.19794739 89.46628629 32.1015625 89.48828125 C30.8407486 89.51408768 29.57993469 89.5398941 28.28091431 89.56648254 C20.50172524 89.56892975 14.42459204 88.61609373 8 84 C1.99046746 77.7346067 -0.25852091 71.61029154 -0.22705078 62.89306641 C-0.22748886 61.86762726 -0.22748886 61.86762726 -0.22793579 60.82147217 C-0.2265521 58.58136923 -0.21103684 56.34160671 -0.1953125 54.1015625 C-0.19157894 52.54072247 -0.18873359 50.97988008 -0.18673706 49.41903687 C-0.17912758 45.3255152 -0.15950237 41.2321371 -0.1373291 37.13867188 C-0.11681263 32.95574892 -0.10772297 28.7728026 -0.09765625 24.58984375 C-0.07625375 16.39316353 -0.0421505 8.19659966 0 0 Z " fill="#FEFEFE" transform="translate(122,598)"/>
<path d="M0 0 C1.24701691 -0.01062721 1.24701691 -0.01062721 2.51922607 -0.02146912 C3.42787918 -0.0189917 4.33653229 -0.01651428 5.27272034 -0.01396179 C6.23233673 -0.01907272 7.19195313 -0.02418365 8.1806488 -0.02944946 C11.35927023 -0.04337291 14.53767551 -0.04238663 17.71632385 -0.04008484 C19.92205893 -0.04397023 22.12779326 -0.04830457 24.33352661 -0.05307007 C28.95960413 -0.06053819 33.58560533 -0.06023668 38.21168518 -0.05497742 C44.14479457 -0.04918178 50.0775919 -0.06611338 56.01064968 -0.08932209 C60.56679109 -0.10404194 65.12285705 -0.10493351 69.67901802 -0.10181236 C71.8667214 -0.10232645 74.05442891 -0.10758043 76.2421093 -0.11762428 C79.29939526 -0.12993744 82.35606944 -0.12322763 85.41334534 -0.11161804 C86.31997421 -0.11926178 87.22660309 -0.12690552 88.16070557 -0.13478088 C94.28551818 -0.08327863 94.28551818 -0.08327863 97.45205688 1.66726685 C99.1518784 3.52794947 99.62676116 4.6491748 99.9702301 7.13569641 C100.08495667 7.79311829 100.19968323 8.45054016 100.31788635 9.12788391 C99.62533925 12.72912887 97.75021107 14.03567677 94.9077301 16.26069641 C91.71074091 16.99197471 88.58397507 16.93419043 85.31568909 16.89179993 C84.35578064 16.89895523 83.39587219 16.90611053 82.40687561 16.91348267 C79.23870541 16.93037089 76.07194981 16.91096714 72.90382385 16.88960266 C70.70094689 16.89043127 68.49806998 16.89289037 66.29519653 16.89691162 C61.68090684 16.89976963 57.06710255 16.88506634 52.45289612 16.85762024 C46.53538439 16.82351794 40.61873955 16.82956255 34.70118618 16.84828281 C30.15357219 16.85884523 25.60616033 16.84992212 21.05856514 16.83489799 C18.87645632 16.82971153 16.69432644 16.83020359 14.51222038 16.83644295 C11.46447633 16.84188663 8.41797866 16.82154717 5.37037659 16.79414368 C4.01514641 16.8039325 4.01514641 16.8039325 2.63253784 16.81391907 C-3.46014835 16.72065726 -3.46014835 16.72065726 -6.6289978 14.41485596 C-8.51708961 11.63529705 -8.95277573 9.60855646 -9.0922699 6.26069641 C-7.55186555 1.63948336 -4.75578974 0.01352032 0 0 Z " fill="#F9FBFC" transform="translate(1379.092269897461,651.7393035888672)"/>
<path d="M0 0 C12.82150329 -0.1389788 25.64282761 -0.24561083 38.46493053 -0.31087303 C44.41870401 -0.34219476 50.37196243 -0.38468444 56.32543945 -0.45263672 C62.07020954 -0.517797 67.81448402 -0.55369969 73.55959511 -0.56926346 C75.75212724 -0.58035562 77.94463204 -0.60201625 80.13695335 -0.63438034 C83.20672732 -0.67789823 86.27444996 -0.68393589 89.34448242 -0.68115234 C90.25222916 -0.702724 91.15997589 -0.72429565 92.0952301 -0.746521 C98.06150877 -0.68792917 98.06150877 -0.68792917 100.70788002 1.25190353 C103.34216471 4.18868224 104.00491852 5.70980757 103.9375 9.6875 C103 13 103 13 101 16 C99.14549446 16.50716972 99.14549446 16.50716972 96.92532349 16.67941284 C96.11729404 16.74370358 95.3092646 16.80799431 94.47674942 16.87423325 C90.71252657 17.06537656 86.96364827 17.13942198 83.19482422 17.12939453 C81.95150833 17.13202301 81.95150833 17.13202301 80.68307495 17.13470459 C77.97359047 17.13906602 75.26417252 17.13620594 72.5546875 17.1328125 C70.65617867 17.13348705 68.75766992 17.13445834 66.85916138 17.13571167 C62.89356661 17.1371808 58.92799447 17.13505891 54.96240234 17.13037109 C49.8907943 17.12466648 44.8192391 17.12796244 39.74763298 17.13394356 C35.83220016 17.13756373 31.91677979 17.13640402 28.00134659 17.13381577 C26.1315218 17.13315093 24.26169586 17.13395935 22.39187241 17.13629532 C19.77668018 17.13884664 17.16157266 17.13494674 14.54638672 17.12939453 C13.78152954 17.13141876 13.01667236 17.13344299 12.2286377 17.13552856 C0.72180667 17.09047756 0.72180667 17.09047756 -2.875 14.8125 C-4.52261692 12.15800608 -4.87533099 10.11672513 -5 7 C-3.6875 4.125 -3.6875 4.125 -2 2 C-1.34 2 -0.68 2 0 2 C0 1.34 0 0.68 0 0 Z " fill="#F1F4F8" transform="translate(1375,672)"/>
<path d="M0 0 C1.16478378 -0.01583633 2.32956757 -0.03167267 3.52964783 -0.04798889 C4.78387039 -0.04302902 6.03809296 -0.03806915 7.33032227 -0.03295898 C9.268395 -0.04225685 9.268395 -0.04225685 11.24562073 -0.05174255 C13.97854444 -0.06214113 16.71094732 -0.05759469 19.44384766 -0.04296875 C22.93913677 -0.02579013 26.43278053 -0.04926355 29.92788601 -0.08445835 C33.27046105 -0.11175532 36.61264094 -0.10169438 39.95532227 -0.09545898 C41.83361977 -0.1153463 41.83361977 -0.1153463 43.74986267 -0.13563538 C53.40313569 -0.03204618 53.40313569 -0.03204618 56.50634766 2.88134766 C58.58802284 6.12338887 58.8533963 7.74896152 58.20922852 11.53344727 C56.42938447 14.66936297 55.68614645 15.37447462 52.20922852 16.53344727 C50.36929011 16.62673556 48.52613914 16.6613715 46.68383789 16.6628418 C44.9869281 16.66757004 44.9869281 16.66757004 43.2557373 16.6723938 C42.0338269 16.67036957 40.8119165 16.66834534 39.55297852 16.66625977 C37.67225647 16.66769485 37.67225647 16.66769485 35.75354004 16.66915894 C33.10055094 16.66983995 30.44765372 16.66849185 27.79467773 16.66381836 C24.3950304 16.65812125 20.99546201 16.661402 17.59581757 16.66739082 C14.35236838 16.6718742 11.10892873 16.66873469 7.86547852 16.66625977 C6.03261292 16.66929611 6.03261292 16.66929611 4.16271973 16.6723938 C3.03144653 16.66924164 1.90017334 16.66608948 0.73461914 16.6628418 C-0.26226929 16.6620462 -1.25915771 16.66125061 -2.28625488 16.66043091 C-4.79077148 16.53344727 -4.79077148 16.53344727 -7.79077148 15.53344727 C-10.10327148 12.78344727 -10.10327148 12.78344727 -11.79077148 9.53344727 C-10.54941717 3.01633711 -6.38254534 0.03862922 0 0 Z " fill="#F4F8FA" transform="translate(1400.790771484375,692.466552734375)"/>
<path d="M0 0 C0 0.66 0 1.32 0 2 C-3.59507904 4.39671936 -6.16123104 4.27624148 -10.31030273 4.24291992 C-11.0522438 4.24481827 -11.79418488 4.24671661 -12.55860901 4.24867249 C-15.01704412 4.25238283 -17.47518474 4.24166338 -19.93359375 4.23046875 C-21.64933742 4.22927582 -23.36508174 4.22882403 -25.08082581 4.2290802 C-28.68470325 4.22751431 -32.28848151 4.21922355 -35.89233398 4.20581055 C-40.48159974 4.18893565 -45.07075534 4.18499302 -49.66004848 4.18575573 C-53.20940681 4.1854817 -56.75874167 4.1799616 -60.30809212 4.17275429 C-61.99794398 4.16959906 -63.68779848 4.16760768 -65.37765312 4.16686058 C-74.63618125 4.15829579 -83.78145975 3.98715228 -93 3 C-93 2.67 -93 2.34 -93 2 C-91.88944244 1.98969254 -90.77888489 1.97938507 -89.63467407 1.96876526 C-79.1867781 1.87115894 -68.73894339 1.76843716 -58.29114723 1.66066074 C-52.91937975 1.60541283 -47.54760684 1.55198985 -42.17578125 1.50268555 C-36.99512249 1.45506956 -31.81453137 1.40272776 -26.63395309 1.34705925 C-24.65395153 1.32662315 -22.67393141 1.30791217 -20.69389725 1.29092598 C-17.92818723 1.26690974 -15.16260576 1.23685142 -12.39697266 1.20532227 C-11.57194748 1.1995668 -10.7469223 1.19381134 -9.89689636 1.18788147 C-6.39362267 1.14225548 -3.2916176 0 0 0 Z " fill="#94B5C4" transform="translate(1476,513)"/>
<path d="M0 0 C1.43964363 -0.00810448 1.43964363 -0.00810448 2.90837097 -0.01637268 C6.08180551 -0.02888291 9.25433691 -0.01235328 12.42773438 0.00561523 C14.63203987 0.0054603 16.83634565 0.00397225 19.04064941 0.00120544 C23.66084838 -0.00017958 28.28073731 0.01239715 32.90087891 0.03515625 C38.82615036 0.06354091 44.75090654 0.0608048 50.67621613 0.04806614 C55.22809254 0.04111454 59.77984964 0.04889236 64.33171082 0.06132317 C66.51661217 0.0658427 68.70152631 0.0661701 70.88642883 0.06225777 C73.93887634 0.0593507 76.99061123 0.07582887 80.04296875 0.09765625 C81.4005555 0.09090378 81.4005555 0.09090378 82.78556824 0.08401489 C88.89079116 0.15663239 88.89079116 0.15663239 92.07580566 1.89927673 C94.66004055 4.7637177 94.27575093 7.754274 94.52148438 11.50170898 C92.77520959 8.88229681 92.13426049 7.46346022 91.52148438 4.50170898 C87.5736818 3.27282322 83.54042234 3.15833843 79.44116211 2.94750977 C78.64660583 2.90539934 77.85204954 2.86328892 77.03341579 2.81990242 C68.29124681 2.3912368 59.55740508 2.35649783 50.80664062 2.36889648 C49.0907744 2.36822042 47.37490826 2.3672479 45.65904236 2.36599731 C42.10707667 2.3645405 38.5551365 2.36661291 35.00317383 2.37133789 C30.45045278 2.37709992 25.89778987 2.37370317 21.34507084 2.36776543 C17.82184913 2.36416045 14.29864135 2.36529698 10.77541924 2.36789322 C9.09487336 2.3685593 7.41432621 2.36774522 5.73378181 2.36541367 C3.40134402 2.36288117 1.06900283 2.36673321 -1.26342773 2.37231445 C-2.29886719 2.36927811 -2.29886719 2.36927811 -3.35522461 2.36618042 C-6.34956298 2.37948954 -8.61122332 2.54594488 -11.47851562 3.50170898 C-11.80851562 4.49170898 -12.13851563 5.48170898 -12.47851562 6.50170898 C-12.80851562 5.84170898 -13.13851563 5.18170898 -13.47851562 4.50170898 C-9.82263607 -0.61136243 -5.76347341 -0.06156632 0 0 Z " fill="#BFD1E8" transform="translate(1384.478515625,651.498291015625)"/>
<path d="M0 0 C1.62228516 -0.01836914 1.62228516 -0.01836914 3.27734375 -0.03710938 C9.03666417 -0.04765758 13.88095626 0.27384431 19.375 2.1875 C21.51829157 2.73913821 23.66402308 3.28141582 25.8125 3.8125 C26.86308594 4.07289063 27.91367188 4.33328125 28.99609375 4.6015625 C29.78113281 4.79492188 30.56617188 4.98828125 31.375 5.1875 C31.375 5.5175 31.375 5.8475 31.375 6.1875 C23.86220897 5.29615191 23.86220897 5.29615191 21.16796875 4.6953125 C9.88680487 2.64419179 -1.88666525 2.93912001 -13.25 4 C-14.60931641 4.12338745 -14.60931641 4.12338745 -15.99609375 4.24926758 C-20.81806273 4.5481215 -20.81806273 4.5481215 -24.625 7.1875 C-26.68359375 7.53125 -26.68359375 7.53125 -29.0625 7.6875 C-32.56309684 7.91818183 -33.56725845 8.14900563 -36.625 10.1875 C-38.94887947 10.58137788 -41.28293749 10.92236085 -43.625 11.1875 C-40.93246204 7.70244144 -37.23784636 6.8293742 -33.1875 5.625 C-32.47972412 5.40811523 -31.77194824 5.19123047 -31.04272461 4.96777344 C-25.68016119 3.37573411 -20.33348935 2.29362239 -14.78515625 1.546875 C-9.85204699 0.7261769 -5.48253238 0.00319868 0 0 Z " fill="#D4E2EE" transform="translate(1423.625,372.8125)"/>
<path d="M0 0 C12.82150329 -0.1389788 25.64282761 -0.24561083 38.46493053 -0.31087303 C44.41870401 -0.34219476 50.37196243 -0.38468444 56.32543945 -0.45263672 C62.07020954 -0.517797 67.81448402 -0.55369969 73.55959511 -0.56926346 C75.75212724 -0.58035562 77.94463204 -0.60201625 80.13695335 -0.63438034 C83.20672732 -0.67789823 86.27444996 -0.68393589 89.34448242 -0.68115234 C90.25222916 -0.702724 91.15997589 -0.72429565 92.0952301 -0.746521 C98.08989629 -0.68765039 98.08989629 -0.68765039 100.69469643 1.28046799 C102.87332263 3.76203254 103.95397792 5.57659689 104.3125 8.875 C104.209375 9.57625 104.10625 10.2775 104 11 C102 8 102 8 102 5 C100.68 4.67 99.36 4.34 98 4 C98 3.34 98 2.68 98 2 C48.5 2.495 48.5 2.495 -2 3 C-1.34 2.67 -0.68 2.34 0 2 C0 1.34 0 0.68 0 0 Z " fill="#E2F1F5" transform="translate(1375,672)"/>
<path d="M0 0 C0.33 0 0.66 0 1 0 C3.35892725 17.01797517 3.35892725 32.98202483 1 50 C0.67 50 0.34 50 0 50 C0 33.5 0 17 0 0 Z " fill="#BFD5E9" transform="translate(1536,465)"/>
<path d="M0 0 C-0.93972656 0.18175781 -0.93972656 0.18175781 -1.8984375 0.3671875 C-2.71570312 0.53476562 -3.53296875 0.70234375 -4.375 0.875 C-5.18710938 1.03742188 -5.99921875 1.19984375 -6.8359375 1.3671875 C-9.18673923 1.86658932 -9.18673923 1.86658932 -11 4 C-13.05859375 4.34375 -13.05859375 4.34375 -15.4375 4.5 C-18.93809684 4.73068183 -19.94225845 4.96150563 -23 7 C-25.32387947 7.39387788 -27.65793749 7.73486085 -30 8 C-27.27614225 4.41707942 -23.37819957 3.59538016 -19.25 2.375 C-18.5590625 2.1584375 -17.868125 1.941875 -17.15625 1.71875 C-5.27533803 -1.89912169 -5.27533803 -1.89912169 0 0 Z " fill="#CADCE7" transform="translate(1410,376)"/>
<path d="M0 0 C0 0.66 0 1.32 0 2 C-3.76971235 4.51314157 -5.58627894 4.15974372 -10.07421875 3.9765625 C-10.7580513 3.95153656 -11.44188385 3.92651062 -12.1464386 3.90072632 C-14.32730629 3.81865275 -16.50725097 3.72201736 -18.6875 3.625 C-20.16728019 3.56674731 -21.64709809 3.5094443 -23.12695312 3.453125 C-26.75180422 3.3130945 -30.37596924 3.15999996 -34 3 C-34 2.67 -34 2.34 -34 2 C-33.10168457 1.97494385 -32.20336914 1.9498877 -31.27783203 1.92407227 C-27.94925131 1.82901307 -24.62085006 1.72977579 -21.29248047 1.62768555 C-19.8511238 1.58433769 -18.40971582 1.54266248 -16.96826172 1.50268555 C-14.89795459 1.44497912 -12.82790568 1.38128629 -10.7578125 1.31640625 C-9.5114502 1.27974854 -8.26508789 1.24309082 -6.98095703 1.20532227 C-4.31382902 1.02161591 -2.57531214 0 0 0 Z " fill="#617592" transform="translate(1476,513)"/>
<path d="M0 0 C0.33 1.32 0.66 2.64 1 4 C0.01 4 -0.98 4 -2 4 C-2.226875 4.61875 -2.45375 5.2375 -2.6875 5.875 C-4 8 -4 8 -6.3125 8.875 C-10.08009308 10.45213199 -11.54270842 12.77041678 -14 16 C-14.66 15.67 -15.32 15.34 -16 15 C-12.07041996 10.21009771 -8.4817719 5.9900574 -3 3 C-2.01 3 -1.02 3 0 3 C0 2.01 0 1.02 0 0 Z " fill="#C7D7E3" transform="translate(1371,461)"/>
<path d="M0 0 C-0.61469144 3.41153748 -1.89511054 5.51769156 -4 8.25 C-4.53625 8.95640625 -5.0725 9.6628125 -5.625 10.390625 C-6.07875 10.92171875 -6.5325 11.4528125 -7 12 C-7.33 12 -7.66 12 -8 12 C-8.51385563 9.17379401 -8.34138082 7.50996394 -6.734375 5.109375 C-2.45579268 0 -2.45579268 0 0 0 Z " fill="#D1E1EE" transform="translate(1521,551)"/>
<path d="M0 0 C1 2 1 2 0.25 5.0625 C-0.1625 6.031875 -0.575 7.00125 -1 8 C-1.99 8.33 -2.98 8.66 -4 9 C-5.70855022 12.00007271 -5.70855022 12.00007271 -7 15 C-7.66 15 -8.32 15 -9 15 C-7.58399311 8.86397012 -3.9336625 4.73301638 0 0 Z " fill="#C6DBEB" transform="translate(1335,417)"/>
<path d="M0 0 C0.33 0 0.66 0 1 0 C1.36275656 2.26947697 1.71493186 4.54064735 2.0625 6.8125 C2.25972656 8.07707031 2.45695312 9.34164063 2.66015625 10.64453125 C3 14 3 14 2 17 C1.34 17 0.68 17 0 17 C0 11.39 0 5.78 0 0 Z " fill="#CADBE4" transform="translate(1536,465)"/>
<path d="M0 0 C2.96527758 2.4453385 3.55582214 4.44602347 4.1875 8.1875 C4.34605469 9.08855469 4.50460937 9.98960937 4.66796875 10.91796875 C4.83232422 11.94857422 4.83232422 11.94857422 5 13 C2 11 2 11 1.26953125 8.3984375 C1.11871094 7.40070313 0.96789063 6.40296875 0.8125 5.375 C0.65394531 4.37210937 0.49539063 3.36921875 0.33203125 2.3359375 C0.22246094 1.56507813 0.11289063 0.79421875 0 0 Z " fill="#C1D3E2" transform="translate(1463,468)"/>
<path d="M0 0 C-1.41519715 2.0343459 -2.54982123 2.90410393 -4.98046875 3.421875 C-6.98176954 3.66273952 -8.9909944 3.83532741 -11 4 C-7.64918101 0.31409911 -4.96535219 -1.77334007 0 0 Z " fill="#E2F0F7" transform="translate(1381,385)"/>
<path d="M0 0 C1.21386936 3.64160808 0.6674695 4.33165469 -0.9375 7.6875 C-1.31777344 8.49574219 -1.69804688 9.30398438 -2.08984375 10.13671875 C-2.39019531 10.75160156 -2.69054688 11.36648438 -3 12 C-3.33 12 -3.66 12 -4 12 C-4 10.02 -4 8.04 -4 6 C-3.34 6 -2.68 6 -2 6 C-2 4.35 -2 2.7 -2 1 C-1.34 0.67 -0.68 0.34 0 0 Z " fill="#CCDDEA" transform="translate(1531,529)"/>
<path d="M0 0 C2.4375 1.5625 2.4375 1.5625 5 4 C5.8125 7.75 5.8125 7.75 6 11 C4 8 4 8 4 5 C3.360625 4.896875 2.72125 4.79375 2.0625 4.6875 C1.381875 4.460625 0.70125 4.23375 0 4 C-0.33 3.01 -0.66 2.02 -1 1 C-0.67 0.67 -0.34 0.34 0 0 Z " fill="#BACFDD" transform="translate(1473,672)"/>
<path d="M0 0 C3 3 3 3 3.375 6 C3 9 3 9 0 12 C0 8.04 0 4.08 0 0 Z " fill="#ADC9E5" transform="translate(1456,695)"/>
<path d="M0 0 C-2.85584773 1.90389849 -4.9311762 2.69462177 -8.1875 3.625 C-9.08855469 3.88539063 -9.98960938 4.14578125 -10.91796875 4.4140625 C-11.94857422 4.70410156 -11.94857422 4.70410156 -13 5 C-13 4.34 -13 3.68 -13 3 C-8.37802694 0.78145293 -5.23175837 -0.38281159 0 0 Z " fill="#B8D4E2" transform="translate(1405,391)"/>
<path d="M0 0 C0.66 0.33 1.32 0.66 2 1 C1.67 2.98 1.34 4.96 1 7 C-0.32 6.01 -1.64 5.02 -3 4 C-2.01 2.68 -1.02 1.36 0 0 Z " fill="#E4EFF3" transform="translate(1393,695)"/>
<path d="M0 0 C2.70272533 2.87164566 3.94791837 4.30991841 4.25 8.3125 C4.1675 9.199375 4.085 10.08625 4 11 C1.9656541 9.58480285 1.09589607 8.45017877 0.578125 6.01953125 C0.33726048 4.01823046 0.16467259 2.0090056 0 0 Z " fill="#D5E1F6" transform="translate(1366,583)"/>
<path d="M0 0 C1.98 0.495 1.98 0.495 4 1 C2.68 3.31 1.36 5.62 0 8 C-0.33 8 -0.66 8 -1 8 C-1.125 2.25 -1.125 2.25 0 0 Z " fill="#D2E2EC" transform="translate(1337,437)"/>
<path d="M0 0 C0.66 0.33 1.32 0.66 2 1 C1.3125 2.9375 1.3125 2.9375 0 5 C-2.625 5.75 -2.625 5.75 -5 6 C-3.86695008 2.60085025 -2.87481525 1.94745549 0 0 Z " fill="#C0D8DF" transform="translate(1387,435)"/>
<path d="M0 0 C-3.42346555 3.14958831 -6.44262737 3.56179109 -11 4 C-8.32997607 0.73663741 -4.08378642 -2.04189321 0 0 Z " fill="#AEC5D6" transform="translate(1391,380)"/>
<path d="M0 0 C3.53372712 1.96318174 6.24479785 4.04070881 9 7 C8.236875 6.690625 7.47375 6.38125 6.6875 6.0625 C4.81210323 5.32106407 2.91315348 4.63771783 1 4 C0.3125 1.9375 0.3125 1.9375 0 0 Z " fill="#B1CBD4" transform="translate(1487,393)"/>
<path d="M0 0 C0.66 0.33 1.32 0.66 2 1 C1.42655063 3.86724686 1.1385485 4.8614515 -1 7 C-1.99 6.67 -2.98 6.34 -4 6 C-3.34 5.01 -2.68 4.02 -2 3 C-1.34 3 -0.68 3 0 3 C0 2.01 0 1.02 0 0 Z " fill="#C4D4E1" transform="translate(1496,559)"/>
</svg>
